<svg width="542px" height="533px" viewBox="0 0 542 533" version="1.1" xmlns="http://www.w3.org/2000/svg" xmlns:xlink="http://www.w3.org/1999/xlink">
    <!-- Generator: Sketch 51.2 (57519) - http://www.bohemiancoding.com/sketch -->
    <title>Group</title>
    <desc>Created with Sketch.</desc>
    <defs></defs>
    <g id="Page-1" stroke="none" stroke-width="1" fill="none" fill-rule="evenodd">
        <g id="MyShape" fill-rule="nonzero">
            <path id="outer" d="M502.5,324 L512.5,324 L521.5,326 L529,331 L534.5,338 L538.5,346 L540.5,354 L542,363 L542,370.5 L542,378 L542,386 L542,393.5 L542,400.5 L542,408.5 L542,417 L542,425 L542,429.5 L542,434.5 L542,441 C541,444.666667 540.5,446.5 540.5,446.5 C539.833333,450.166667 539.5,452 539.5,452 C538.833333,456.333333 538.5,458.5 538.5,458.5 C537.5,462.5 537,464.5 537,464.5 C535.666667,469.166667 535,471.5 535,471.5 C533.666667,475.166667 533,477 533,477 C530.666667,482 529.5,484.5 529.5,484.5 C527.166667,488.833333 526,491 526,491 C523.333333,495 522,497 522,497 C519,500.333333 517.5,502 517.5,502 C514.166667,505.333333 512.5,507 512.5,507 C508.166667,510.333333 506,512 506,512 C501.666667,514.666667 499.5,516 499.5,516 C494.166667,518.666667 491.5,520 491.5,520 C486.5,522 484,523 484,523 C478.333333,524.666667 475.5,525.5 475.5,525.5 C470.166667,526.5 467.5,527 467.5,527 C461.833333,528 459,528.5 459,528.5 C453.333333,528.833333 450.5,529 450.5,529 C444.5,529.333333 441.5,529.5 441.5,529.5 L432.5,529.5 L424,529 L418,528.5 L410.5,527 L400,524.5 L392,522 L382.5,518 L374,513 L366,507 L359.5,500.5 L354.5,494.5 L350,488 L346,481 L343,474.5 L340.5,468 L338.5,462.5 L337.5,458.5 L334.5,462.5 L330,468 L325,474.5 L319.5,481 L311.5,488 L304,494.5 L295,502 L284.5,508.5 L276,513 L267.5,517 L259,520 L251,523 L242.5,525.5 L231,528.5 L218,530.5 L207.5,532 L196,533 L183,533 L172.5,533 L162,533 L149,532 L138,530.5 L128,529.5 L117,527 L106,524.5 L96.5,521 L87,517 L75.5,512 L66,507 L57,500.5 L48,493.5 L39.5,486 L32,478.5 L25.5,470.5 L19.5,461.5 L14,452 L9.5,442 L5,429.5 L3,421 L1,410 L0,399.5 L0,387.5 L0,378 L1,364 L3,353 L5,342.5 L9.5,330 L14,320.5 L19.5,310.5 L26.5,301.5 L34,292 L43.5,283 L54,275 L66,267 L75.5,261.5 L88.5,255.5 L100.5,250 L113,246 L128,242.5 L143.5,240 L156.5,238.5 L171.5,236.5 L188,234.5 L205.5,232.5 L220.5,230.5 L240.5,227.5 L258,224 L273,220.5 L288,216 L296,213 L305.5,208 L315.5,199.5 L323.5,188 L327.5,176.5 L328.5,171.5 L330,158.5 L331,148.5 L330,139.5 L328.5,129 L325,116 L319.5,105 L309.5,91.5 L297.5,81.5 L284.5,73.5 L271,68 L260,65 L247.5,63 L232,61.5 L215.5,61.5 L194.5,64 L176.5,68 L160.5,74.5 L147.5,81.5 L135.5,89 L127,97 L123.5,105 L123.5,109 L126,112.5 L133,118 L138,123 L141.5,129 L145,136.5 L146,145.5 L146,156.5 L145,165 L141.5,173 L135.5,181.5 L127,188 L117,193.5 L106,196.5 L96.5,197.5 L84.5,196.5 L74.5,193.5 L66,190.5 L57,184 L50.5,177.5 L45,171.5 L40.5,163 L37.5,156.5 L35.5,145.5 L34,139.5 L34,128 L35.5,121 L37.5,111 L40.5,100 L45,89 L50.5,80 L58,70 L66,60.5 L75.5,50.5 L86,42.5 L100.5,32.5 L117,23 L134.5,15.5 L153,9 L164.5,6 L181.5,3 L198,1 L210.5,0 L224.5,0 L237.5,0 L251,1 L270,3 L286.5,6 L303,10 L318,15.5 L333,23 L346,31 L359.5,41.5 L370,52 L378.5,64 L385,74.5 L390.5,85.5 L393.5,93 L397,102 L400,113.5 L403,130 L405.5,148.5 L407,163 L407,176.5 C407,185.833333 407,190.5 407,190.5 C407,190.5 407,194.5 407,202.5 L407,214 L407,230.5 L407,247.5 L407,264 L407,273.5 L407,286.5 L407,303.5 L407,314.5 L407,318 L407,332 L407,357.5 L407,381.5 L407,412.5 L408,428.5 L410.5,443.5 L417,456.5 L427.5,465.5 L439,468 L450.5,468 L461.5,462.5 L467.25,456.75 L472,446.5 L475.5,435.5 L477,422.5 L477,412.5 L477,399.5 L477,387.5 L477,373 L477,360.5 L477,352 L479.5,340 L484,332 L493,326 L498,325 L502.5,324 Z" id="fill" fill="#D8D8D8"></path>
            <polygon id="inner" fill="#FFFFFF" points="328.5 259.5 328.5 280 328.5 304.5 328.5 328 326 353.5 322 373.5 314.5 394.5 305 411 294 425 278 440 262 450 246 457 226.5 463 207 466 192 467.5 175 467.5 166 467.5 152.5 466 141 463 129 458.5 116.5 452 105 442.5 97 435 90 425 85.5 415 82 402.5 80.5 388.5 82 370.5 87 353.5 97 339.5 106.5 330 120.5 321 133.5 314.5 149 309.5 162 306.5 180 303 194 301.5 208.5 300 228.5 298 247.5 295 262 292.5 280 288.5 296.5 282 311.5 273 322 265.5"></polygon>
        </g>
    </g>
</svg>
