<svg width="654px" height="554px" viewBox="0 0 654 554" version="1.1" xmlns="http://www.w3.org/2000/svg" xmlns:xlink="http://www.w3.org/1999/xlink">
    <!-- Generator: Sketch 51.2 (57519) - http://www.bohemiancoding.com/sketch -->
    <title>Path 4</title>
    <desc>Created with Sketch.</desc>
    <defs></defs>
    <g id="Page-1" stroke="none" stroke-width="1" fill="none" fill-rule="evenodd">
        <polygon id="MyShape" fill="#D8D8D8" fill-rule="nonzero" points="130.5 42 102.5 48.5 82.5 64.5 62.5 84 45 101 18 131.5 9 152.5 0.5 177.5 9 192 0.5 213 9 237.5 18 255 26.5 266 33 283 45 299 65.5 310.5 88 319.5 102.5 323.5 115 323.5 115 332.5 125.5 342.5 130.5 352.5 130.5 364 138 376 148.5 384.5 161 392.5 174.5 400.5 186 408.5 202 413.5 217 417.5 236.5 417.5 260 417.5 277 417.5 292.5 413.5 301.5 413.5 308 424.5 315.5 436 325 445.5 336 454.5 341.5 465 347.5 477.5 354.5 487.5 362.5 503.5 370 519 375.5 533.5 384 545 395.5 553.5 403 553.5 414.5 553.5 418 545 414.5 533.5 411 519 406.5 509 403 499.5 418 503.5 430 506 448 506 463 506 482 506 498.5 503.5 512.5 499.5 527.5 492.5 539 485 550.5 473 556.5 462 560 454.5 567 441 567 430 567 422 582 422 597 420 609 417.5 618.5 410.5 629.5 400.5 638 388.5 644 376 648 364 651.5 350 654 332.5 654 319.5 654 305.5 654 289.5 651.5 277 648 262 646 250.5 644 237.5 638 227.5 631.5 218.5 627 206 620.5 192 613.5 183 606.5 175.5 600 171 600 157 597 146 587.5 131.5 582 123.5 572 117 563.5 110 554.5 104.5 550.5 95 545.5 87 539 79 530.5 69.5 519 59 508 48.5 496 42 482 35 465 29 452 26 433.5 20 418 15 406.5 13 393 13 381 11 368 6 350 0.5 329.5 0.5 318.5 0.5 305 3.5 296 3.5 286 0.5 270 0.5 255.5 3.5 243.5 6 234.5 11 225 11 211 11 198 11 186 13 170 20 152.5 26 141 35"></polygon>
    </g>
</svg>
