<?xml version="1.0" encoding="UTF-8"?>
<svg width="4334px" height="863px" viewBox="0 0 4334 863" version="1.1" xmlns="http://www.w3.org/2000/svg" xmlns:xlink="http://www.w3.org/1999/xlink">
    <!-- Generator: Sketch 51.3 (57544) - http://www.bohemiancoding.com/sketch -->
    <title>Brainery</title>
    <desc>Created with Sketch.</desc>
    <defs></defs>
    <g id="Page-1" stroke="none" stroke-width="1" fill="none" fill-rule="evenodd">
        <path d="M597,168 C597,200.00016 590.00007,226.99989 576,249 C561.99993,271.00011 539.00016,289.66659 507,305 C523.00008,311.00003 535.33329,316.99997 544,323 L543,323 C600.33362,356.3335 629,404.99968 629,469 C629,532.33365 604.00025,582.99981 554,621 C507.3331,657.66685 443.33374,676 362,676 C348.6666,676 333.166755,675.500005 315.5,674.5 C297.833245,673.499995 278.33344,672.33334 257,671 C235.66656,669.66666 217.500075,668.500005 202.5,667.5 C187.499925,666.499995 175.00005,666 165,666 C147.66658,666 132.00007,666.99999 118,669 L72,675 L70,675 C69.33333,675 68.66667,675.166665 68,675.5 C67.33333,675.833335 66.66667,676 66,676 L56,676 C18.66648,675.33333 0,659.33349 0,628 C0,598.66652 15.33318,584 46,584 C48.66668,584 52.66664,584.166665 58,584.5 C63.33336,584.833335 68.66664,585.66666 74,587 L80,587 C83.33335,587.66667 85.833325,588 87.5,588 L92,588 C113.33344,588 124,569.00019 124,531 L124,145 C124,106.33314 113.66677,86.66667 93,86 C91.66666,86.66667 89.00002,87 85,87 C80.99998,87 77.00002,87.33333 73,88 L74,88 C62.66661,90.00001 53.33337,91 46,91 C15.33318,91 0,76.33348 0,47 C0,15.66651 19.9998,0 60,0 L74,0 L121,7 C135.00007,9.00001 152.66656,10 174,10 C197.33345,10 231.66644,8.00002 277,4 L276,4 C291.33341,2.66666 307.166585,1.66667 323.5,1 C339.833415,0.33333 356.99991,0 375,0 C445.66702,0 500.33314,14.66652 539,44 C577.66686,73.33348 597,114.6664 597,168 Z M229,209 C229,237.00014 230.66665,255.33329 234,264 C240.00003,268.66669 252.66657,271 272,271 L326,271 C428.66718,271 480,238.66699 480,174 C480,115.33304 438.66708,86 356,86 C292.66635,86 254.66673,89.66663 242,97 L243,97 C233.66662,103.00003 229,120.66652 229,150 L229,209 Z M229,511 C229,547.66685 233.33329,569.3333 242,576 C248.6667,580.66669 260.66658,583.833325 278,585.5 C295.33342,587.166675 318.99985,588 349,588 C457.66721,588 512,547.66707 512,467 C512,393.6663 460.00052,357 356,357 L276,357 C249.99987,357 235.33335,361.66662 232,371 C229.99999,377.00003 229,387.99992 229,404 L229,511 Z M845,172 C867.00011,172 879.99998,180.66658 884,198 C916.66683,169.33319 955.66644,155 1001,155 C1025.66679,155 1047.9999,158.499965 1068,165.5 C1088.0001,172.500035 1105.33326,182.499935 1120,195.5 C1134.66674,208.500065 1145.99996,223.99991 1154,242 C1162.00004,260.00009 1166,279.99989 1166,302 C1166,334.00016 1157.66675,359.833235 1141,379.5 C1124.33325,399.166765 1102.00014,409 1074,409 C1054.66657,409 1038.50006,403.33339 1025.5,392 C1012.49993,380.66661 1006,366.66675 1006,350 C1006,336.6666 1011.49995,324.66672 1022.5,314 C1033.50005,303.33328 1045.99993,298 1060,298 C1061.33334,298 1061.16667,297.66667 1059.5,297 L1062,298 L1062,293 C1062,278.33326 1055.50006,266.00005 1042.5,256 C1029.49994,245.99995 1013.33343,241 994,241 C951.99979,241 924.00007,260.33314 910,299 C900.66662,325.6668 896,364.99974 896,417 L896,526 C896,537.33339 896.33333,544.33332 897,547 C900.33335,576.33348 904.66664,591 910,591 C914.00002,591 917.66665,590.833335 921,590.5 C924.33335,590.166665 927.66665,589.66667 931,589 C939.66671,586.33332 947.3333,585 954,585 C984.66682,585 1000,599.33319 1000,628 C1000,659.33349 981.66685,675 945,675 L942,675 C936.66664,675 930.166705,674.66667 922.5,674 C914.833295,673.33333 906.00005,672.33334 896,671 C876.66657,668.99999 863.00004,668 855,668 C842.33327,668 831.33338,668.166665 822,668.5 C812.66662,668.833335 804.33337,669.33333 797,670 L743,675 C706.33315,675 688,659.33349 688,628 C688,599.99986 705.33316,586 740,586 C743.33335,586 746.166655,585.833335 748.5,585.5 C750.833345,585.166665 753.66665,585.66666 757,587 L769,590 L777,590 C777.66667,590.66667 778.66666,591 780,591 L781,591 C787.00003,591 790.33333,581.0001 791,561 C791,552.99996 791.33333,545.00004 792,537 C792.66667,528.99996 793,521.00004 793,513 L790,298 C788.66666,273.33321 785.33336,259.33335 780,256 C778.66666,256 775.33336,256.33333 770,257 C764.66664,257.66667 761.00001,258 759,258 L761,258 C752.99996,260.00001 744.66671,261 736,261 C704.66651,261 689,246.33348 689,217 C689,186.33318 707.66648,171 745,171 C746.33334,171.66667 750.3333,172.166665 757,172.5 C763.6667,172.833335 769.66664,173.33333 775,174 C780.33336,174.66667 785.499975,175.166665 790.5,175.5 C795.500025,175.833335 799.33332,176 802,176 L807.5,176 C809.833345,176 812.66665,175.66667 816,175 C817.33334,175 818.499995,174.833335 819.5,174.5 C820.500005,174.166665 821.99999,174 824,174 C830.6667,172.66666 837.66663,172 845,172 Z M1626,683 C1576.66642,683 1543.33342,666.3335 1526,633 C1490.66649,669.00018 1441.66698,687 1379,687 C1322.33305,687 1277.3335,673.166805 1244,645.5 C1210.6665,617.833195 1194,581.00023 1194,535 C1194,506.99986 1200.83326,482.166775 1214.5,460.5 C1228.16674,438.833225 1246.66655,421.3334 1270,408 C1288.00009,397.99995 1303.6666,391.33335 1317,388 C1329.66673,384.66665 1355.33314,380.66669 1394,376 C1444.66692,370.66664 1476.99993,363.66671 1491,355 C1502.33339,346.99996 1508,332.00011 1508,310 C1508,288.66656 1500.50007,271.66673 1485.5,259 C1470.49993,246.33327 1449.33347,240 1422,240 C1395.99987,240 1372.33344,247.33326 1351,262 L1351,261 C1346.33331,265.66669 1344,268.33333 1344,269 L1345,269 C1359.00007,281.00006 1366,295.33325 1366,312 C1366,328.66675 1359.8334,342.33328 1347.5,353 C1335.1666,363.66672 1319.66676,369 1301,369 C1279.66656,369 1262.00007,362.166735 1248,348.5 C1233.99993,334.833265 1227,317.66677 1227,297 C1227,256.9998 1246.66647,223.33347 1286,196 C1323.33352,168.66653 1368.99973,155 1423,155 C1549.00063,155 1612,214.66607 1612,334 L1612,525 C1612,538.3334 1612.16667,549.499955 1612.5,558.5 C1612.83333,567.500045 1613.33333,573.66665 1614,577 C1617.33335,591.66674 1622.66663,599 1630,599 C1641.33339,599 1647,583.33349 1647,552 L1647,505 C1647,476.33319 1661.99985,462 1692,462 C1724.00016,462 1740,481.33314 1740,520 L1740,525 L1739,579 C1737.66666,648.33368 1700.00037,683 1626,683 Z M1506,444 C1501.99998,445.33334 1498.16669,446.833325 1494.5,448.5 C1490.83331,450.166675 1486.66669,451.66666 1482,453 C1463.99991,459.00003 1435.66686,463.66665 1397,467 C1334.33302,473.00003 1303,495.33314 1303,534 C1303,553.33343 1310.16659,568.833275 1324.5,580.5 C1338.83341,592.166725 1358.66654,598 1384,598 C1422.00019,598 1451.49989,587.66677 1472.5,567 C1493.50011,546.33323 1504.33333,518.00018 1505,482 L1506,444 Z M1958.98851,590.999966 C1958.35296,590.996079 1960.02344,590.662761 1964,590 C1968.00002,589.33333 1972.99997,588.33334 1979,587 L1978,588 C1980.00001,587.33333 1982.49998,586.66667 1985.5,586 C1988.50002,585.33333 1992.33331,585 1997,585 C2031.66684,585 2049,599.66652 2049,629 C2049,642.3334 2043.50005,653.33329 2032.5,662 C2021.49995,670.66671 2007.66675,675 1991,675 C1985.66664,675 1979.00004,674.66667 1971,674 C1962.99996,673.33333 1953.66672,672.33334 1943,671 C1932.99995,669.66666 1924.33337,668.500005 1917,667.5 C1909.66663,666.499995 1903.66669,666 1899,666 C1891.66663,666 1883.50005,666.33333 1874.5,667 C1865.49995,667.66667 1856.00005,668.66666 1846,670 C1833.99994,671.33334 1823.83338,672.499995 1815.5,673.5 C1807.16663,674.500005 1800.33336,675 1795,675 C1758.99982,675 1741,659.66682 1741,629 C1741,599.66652 1757.33317,585 1790,585 C1791.33334,585 1795.16664,585.33333 1801.5,586 C1807.83336,586.66667 1812.99998,587.33333 1817,588 C1821.66669,589.33334 1825.33332,590 1828,590 L1834,590 C1839.33336,590 1842.99999,574.00016 1845,542 L1845,301 C1842.99999,269.66651 1839.00003,254 1833,254 C1831.66666,254 1829.33335,254.33333 1826,255 C1822.66665,255.66667 1818.66669,256.66666 1814,258 C1810.66665,259.33334 1806.83335,260.166665 1802.5,260.5 C1798.16665,260.833335 1794.66668,261 1792,261 C1757.99983,261 1741,246.33348 1741,217 C1741,186.99985 1760.33314,172 1799,172 L1817,172 C1821.66669,172 1824.99999,172.33333 1827,173 C1836.33338,174.33334 1844.16664,175.33333 1850.5,176 C1856.83336,176.66667 1860.99999,177 1863,177 C1864.33334,177 1867.16665,176.833335 1871.5,176.5 C1875.83336,176.166665 1879.99998,175.66667 1884,175 L1910,172 C1938.66681,172 1953,188.6665 1953,222 L1953,236 C1952.33333,238.66668 1952,240.833325 1952,242.5 L1952,246 C1951.33333,248.00001 1951,257.33325 1951,274 C1951,278.66669 1950.83334,283.499975 1950.5,288.5 C1950.16666,293.500025 1950,298.66664 1950,304 C1949.33333,317.3334 1949,330.499935 1949,343.5 L1949,542.5 C1949,551.500045 1949.33333,557.66665 1950,561 C1951.99813,580.981344 1954.99435,590.981236 1958.98875,590.999974 L1958.98851,590.999966 Z M1883,148 C1863.66657,148 1847.3334,141.66673 1834,129 C1820.6666,116.33327 1814,100.66676 1814,82 C1814,63.33324 1820.6666,47.833395 1834,35.5 C1847.3334,23.166605 1863.66657,17 1883,17 C1902.33343,17 1918.83327,23.166605 1932.5,35.5 C1946.16673,47.833395 1953,63.33324 1953,82 C1953,100.66676 1946.16673,116.33327 1932.5,129 C1918.83327,141.66673 1902.33343,148 1883,148 Z M2211,172 C2235.66679,172 2249.99998,182.33323 2254,203 C2290.00018,170.99984 2335.33306,155 2390,155 C2427.33352,155 2462.33317,164.33324 2495,183 L2494,183 C2528.66684,203.0001 2551.66661,226.66653 2563,254 C2573.00005,277.33345 2578,306.99982 2578,343 L2578,570 C2578.66667,580.66672 2580.99998,587.33332 2585,590 C2588.33335,590 2592.66664,589.833335 2598,589.5 C2603.33336,589.166665 2607.66665,588.66667 2611,588 C2614.33335,587.33333 2617.33332,586.833335 2620,586.5 C2622.66668,586.166665 2625.99998,586 2630,586 C2642.00006,586 2652.66662,590.166625 2662,598.5 C2671.33338,606.833375 2676,616.66661 2676,628 C2676,641.3334 2670.66672,652.499955 2660,661.5 C2649.33328,670.500045 2636.33341,675 2621,675 C2617.66665,675 2612.50004,674.833335 2605.5,674.5 C2598.49996,674.166665 2591.33337,673.33334 2584,672 C2573.99995,670.66666 2563.16673,669.500005 2551.5,668.5 C2539.83327,667.499995 2529.66671,667 2521,667 C2514.3333,667 2507.50004,667.166665 2500.5,667.5 C2493.49996,667.833335 2487.33336,668.33333 2482,669 C2467.33326,671.00001 2455.33338,672.499995 2446,673.5 C2436.66662,674.500005 2431.33334,675 2430,675 C2393.99982,675 2376,659.33349 2376,628 C2376,599.99986 2391.99984,586 2424,586 C2426.66668,586.66667 2429.33332,587 2432,587 C2434.66668,587 2437.16665,587.166665 2439.5,587.5 C2441.83335,587.833335 2444.33332,588 2447,588 C2450.33335,588.66667 2452.99999,589.166665 2455,589.5 C2457.00001,589.833335 2458.66666,590 2460,590 C2462.00001,590.66667 2463.33333,591 2464,591 C2468.66669,591 2471.33333,578.33346 2472,553 C2472,544.99996 2472.33333,536.833375 2473,528.5 C2473.66667,520.166625 2474,512.00004 2474,504 L2475,447 L2475,375 C2475,344.99985 2473.33335,322.66674 2470,308 C2467.99999,297.99995 2464.33336,288.833375 2459,280.5 C2453.66664,272.166625 2447.33337,265.33336 2440,260 L2440,261 C2420.66657,247.6666 2400.33344,241 2379,241 C2334.33311,241 2302.33343,256.66651 2283,288 C2269.6666,310.66678 2263,350.66638 2263,408 L2263,534 C2263,556.66678 2263.83333,571.99996 2265.5,580 C2267.16667,588.00004 2269.99998,592 2274,592 C2274.66667,592 2276.66665,591.66667 2280,591 C2283.33335,590.33333 2286.99998,589.66667 2291,589 C2295.00002,587.66666 2298.83331,586.66667 2302.5,586 C2306.16669,585.33333 2310.66664,585 2316,585 C2346.66682,585 2362,599.99985 2362,630 C2362,660.00015 2344.00018,675 2308,675 C2304.66665,675 2298.16672,674.33334 2288.5,673 C2278.83328,671.66666 2268.00006,670.33334 2256,669 C2242.6666,666.99999 2228.00008,666 2212,666 C2205.99997,666 2198.83338,666.33333 2190.5,667 C2182.16662,667.66667 2172.33339,668.66666 2161,670 L2139,672 C2132.99997,673.33334 2127.33336,674.166665 2122,674.5 C2116.66664,674.833335 2113.33334,675 2112,675 C2074.66648,675 2056,659.66682 2056,629 C2056,600.33319 2071.33318,586 2102,586 C2105.33335,586 2108.16665,586.166665 2110.5,586.5 C2112.83335,586.833335 2115.33332,587.33333 2118,588 C2126.66671,590.00001 2135.66662,591 2145,591 C2153.00004,591 2157.33333,577.33347 2158,550 C2158,532.66658 2158.33333,515.166755 2159,497.5 C2159.66667,479.833245 2160,462.33342 2160,445 L2160,330 L2158,297 C2156.66666,282.33326 2155.33334,271.833365 2154,265.5 C2152.66666,259.166635 2150.33335,255.33334 2147,254 C2145.66666,254.66667 2142.66669,255.166665 2138,255.5 C2133.33331,255.833335 2129.66668,256.33333 2127,257 C2122.99998,257.66667 2119.33335,258.166665 2116,258.5 C2112.66665,258.833335 2109.33335,259 2106,259 C2072.6665,259 2056,244.33348 2056,215 C2056,185.66652 2075.33314,171 2114,171 C2116.66668,171 2118.83333,170.833335 2120.5,170.5 C2122.16667,170.166665 2124.33332,170.66666 2127,172 L2160,176 C2163.33335,176 2167.16665,175.833335 2171.5,175.5 C2175.83336,175.166665 2179.99998,174.66667 2184,174 C2189.33336,173.33333 2193.83331,172.833335 2197.5,172.5 C2201.16669,172.166665 2205.66664,172 2211,172 Z M3175,379 C3175,394.33341 3174.66667,406.33329 3174,415 C3173.33333,423.66671 3171.33335,430.33331 3168,435 C3164.66665,439.66669 3159.83336,442.499995 3153.5,443.5 C3147.16664,444.500005 3138.33339,445 3127,445 L2826,445 C2823.33332,445 2822,445.33333 2822,446 C2822,490.66689 2834.99987,526.99986 2861,555 C2885.66679,583.66681 2916.66648,598 2954,598 C2978.66679,598 3000.9999,591.3334 3021,578 C3041.0001,564.6666 3053.99997,547.66677 3060,527 L3069,500 C3073.00002,489.99995 3078.83329,482.00003 3086.5,476 C3094.16671,469.99997 3103.66661,467 3115,467 C3149.66684,467 3167,483.6665 3167,517 C3167,562.33356 3143.6669,602.33316 3097,637 C3052.33311,670.3335 3002.00028,687 2946,687 C2873.99964,687 2817.00021,663.33357 2775,616 C2733.66646,568.66643 2713,506.00039 2713,428 C2713,349.33294 2734.99978,284.00026 2779,232 C2823.66689,180.66641 2881.99964,155 2954,155 C2987.3335,155 3016.99987,160.33328 3043,171 C3069.00013,181.66672 3092.33323,197.33323 3113,218 C3154.33354,261.33355 3175,314.99968 3175,379 Z M3066,355 C3066,324.99985 3055.00011,299.00011 3033,277 C3009.66655,254.99989 2983.66681,244 2955,244 C2925.66652,244 2897.00014,255.99988 2869,280 C2843.66654,303.33345 2831,328.3332 2831,355 L3066,355 Z M3375,172 C3397.00011,172 3409.99998,180.66658 3414,198 C3446.66683,169.33319 3485.66644,155 3531,155 C3555.66679,155 3577.9999,158.499965 3598,165.5 C3618.0001,172.500035 3635.33326,182.499935 3650,195.5 C3664.66674,208.500065 3675.99996,223.99991 3684,242 C3692.00004,260.00009 3696,279.99989 3696,302 C3696,334.00016 3687.66675,359.833235 3671,379.5 C3654.33325,399.166765 3632.00014,409 3604,409 C3584.66657,409 3568.50007,403.33339 3555.5,392 C3542.49993,380.66661 3536,366.66675 3536,350 C3536,336.6666 3541.49995,324.66672 3552.5,314 C3563.50006,303.33328 3575.99993,298 3590,298 C3591.33334,298 3591.16667,297.66667 3589.5,297 L3592,298 L3592,293 C3592,278.33326 3585.50007,266.00005 3572.5,256 C3559.49993,245.99995 3543.33343,241 3524,241 C3481.99979,241 3454.00007,260.33314 3440,299 C3430.66662,325.6668 3426,364.99974 3426,417 L3426,526 C3426,537.33339 3426.33333,544.33332 3427,547 C3430.33335,576.33348 3434.66664,591 3440,591 C3444.00002,591 3447.66665,590.833335 3451,590.5 C3454.33335,590.166665 3457.66665,589.66667 3461,589 C3469.66671,586.33332 3477.3333,585 3484,585 C3514.66682,585 3530,599.33319 3530,628 C3530,659.33349 3511.66685,675 3475,675 L3472,675 C3466.66664,675 3460.1667,674.66667 3452.5,674 C3444.8333,673.33333 3436.00005,672.33334 3426,671 C3406.66657,668.99999 3393.00004,668 3385,668 C3372.33327,668 3361.33338,668.166665 3352,668.5 C3342.66662,668.833335 3334.33337,669.33333 3327,670 L3273,675 C3236.33315,675 3218,659.33349 3218,628 C3218,599.99986 3235.33316,586 3270,586 C3273.33335,586 3276.16665,585.833335 3278.5,585.5 C3280.83335,585.166665 3283.66665,585.66666 3287,587 L3299,590 L3307,590 C3307.66667,590.66667 3308.66666,591 3310,591 L3311,591 C3317.00003,591 3320.33333,581.0001 3321,561 C3321,552.99996 3321.33333,545.00004 3322,537 C3322.66667,528.99996 3323,521.00004 3323,513 L3320,298 C3318.66666,273.33321 3315.33336,259.33335 3310,256 C3308.66666,256 3305.33336,256.33333 3300,257 C3294.66664,257.66667 3291.00001,258 3289,258 L3291,258 C3282.99996,260.00001 3274.66671,261 3266,261 C3234.66651,261 3219,246.33348 3219,217 C3219,186.33318 3237.66648,171 3275,171 C3276.33334,171.66667 3280.3333,172.166665 3287,172.5 C3293.6667,172.833335 3299.66664,173.33333 3305,174 C3310.33336,174.66667 3315.49998,175.166665 3320.5,175.5 C3325.50002,175.833335 3329.33332,176 3332,176 L3337.5,176 C3339.83335,176 3342.66665,175.66667 3346,175 C3347.33334,175 3348.5,174.833335 3349.5,174.5 C3350.5,174.166665 3351.99999,174 3354,174 C3360.6667,172.66666 3367.66663,172 3375,172 Z M4031,547 C4047.66675,500.99977 4064.66658,455.66689 4082,411 C4099.33342,366.33311 4115.99992,321.00023 4132,275 L4132,276 C4134.00001,269.3333 4135,263.66669 4135,259 C4135,256.99999 4133.33335,256 4130,256 C4125.33331,256 4120.33336,256.66666 4115,258 C4112.33332,258 4109.50001,258.166665 4106.5,258.5 C4103.49999,258.833335 4101.33334,259 4100,259 C4098.66666,259 4097.33334,259.166665 4096,259.5 C4094.66666,259.833335 4093.33334,260 4092,260 C4060.66651,260 4045,245.33348 4045,216 C4045,185.99985 4063.66648,171 4101,171 L4108,171 C4111.33335,171 4114.33332,171.33333 4117,172 C4117.66667,172 4118.16666,172.166665 4118.5,172.5 C4118.83333,172.833335 4119.66666,173 4121,173 L4155,178 C4159.66669,178.66667 4164.16665,179 4168.5,179 L4183,179 C4187.66669,179 4193.66663,178.833335 4201,178.5 C4208.33337,178.166665 4217.33328,177.33334 4228,176 C4238.66672,174.66666 4248.16662,173.66667 4256.5,173 C4264.83338,172.33333 4271.99997,172 4278,172 C4315.33352,172 4334,186.66652 4334,216 C4334,245.33348 4318.33349,260 4287,260 C4277.66662,260 4271.66668,259.33334 4269,258 C4266.99999,257.33333 4265.16667,257 4263.5,257 C4261.83332,257 4260.33334,256.66667 4259,256 C4257.66666,256 4256.66667,255.66667 4256,255 C4251.33331,255 4244.00005,268.3332 4234,295 L4105,617 C4077.66653,687.00035 4050.00014,739.99982 4022,776 C3976.66644,834.00029 3919.00035,863 3849,863 C3805.66645,863 3770.00014,852.33344 3742,831 C3711.33318,808.33322 3696,781.33349 3696,750 C3696,726.66655 3703.16659,707.500075 3717.5,692.5 C3731.83341,677.499925 3750.66655,670 3774,670 C3793.33343,670 3809.1666,675.499945 3821.5,686.5 C3833.8334,697.500055 3840,711.33325 3840,728 C3840,746.66676 3833.66673,760.33329 3821,769 C3825.00002,771.66668 3829.16665,773.166665 3833.5,773.5 C3837.83336,773.833335 3843.3333,774 3850,774 C3879.33348,774 3905.66655,762.66678 3929,740 C3953.00012,717.99989 3965,693.33347 3965,666 C3965,651.99993 3956.66675,624.33354 3940,583 L3836,320 C3835.33333,317.33332 3834.33334,314.66668 3833,312 C3831.66666,309.33332 3830.33334,306.166685 3829,302.5 C3827.66666,298.833315 3826.33334,294.33336 3825,289 C3815.66662,266.33322 3808.33336,255 3803,255 C3801.66666,255 3799.83335,255.166665 3797.5,255.5 C3795.16665,255.833335 3792.33335,256.33333 3789,257 C3783.66664,257.66667 3777.50004,258.499995 3770.5,259.5 C3763.49996,260.500005 3760.66666,261 3762,261 C3729.99984,261 3714,246.33348 3714,217 C3714,186.99985 3733.9998,172 3774,172 L3788,172 C3792.66669,172 3795.99999,172.33333 3798,173 C3804.00003,173.66667 3809.83331,174.499995 3815.5,175.5 C3821.16669,176.500005 3826.99997,177.33333 3833,178 L3844,178 C3847.33335,178.66667 3849.99999,179 3852,179 C3863.33339,179 3874.83327,178.66667 3886.5,178 C3898.16673,177.33333 3910.33327,176.33334 3923,175 C3943.0001,172.99999 3956.66663,172 3964,172 C4001.33352,172 4020,186.66652 4020,216 C4020,246.00015 4002.66684,261 3968,261 C3965.33332,261 3962.16669,260.833335 3958.5,260.5 C3954.83331,260.166665 3951.33335,259.66667 3948,259 C3945.99999,259 3943.83335,258.833335 3941.5,258.5 C3939.16665,258.166665 3937.00001,258 3935,258 C3935,262.00002 3935.99999,265.99998 3938,270 L4031,547 Z" id="Brainery" fill="#000000"></path>
    </g>
</svg>