<svg width="405px" height="502px" viewBox="0 0 405 502" version="1.1" xmlns="http://www.w3.org/2000/svg" xmlns:xlink="http://www.w3.org/1999/xlink">
    <!-- Generator: Sketch 52.1 (67048) - http://www.bohemiancoding.com/sketch -->
    <title>Group 2</title>
    <desc>Created with Sketch.</desc>
    <g id="Page-1" stroke="none" stroke-width="1" fill="none" fill-rule="evenodd">
        <g id="MyShape" fill-rule="nonzero">
            <path d="M0,0 L0,502 L95.8027327,502 L95.8027327,299.524339 L154.598634,299.524339 L280.491033,502 L405,502 L240.371477,271.596662 C273.573868,252.047288 299.282664,227.726936 317.497865,198.635605 C335.713066,169.544274 341.592656,138.474733 335.136635,105.426982 C335.136635,75.6374594 322.224594,50.6189152 296.400512,30.3713491 C270.57643,10.123783 239.27626,0 202.5,0 L0,0 Z" id="outer" fill="#B8B8B8"></path>
            <path d="M53,35.9981078 L53,249.753562 C116.33935,253.562122 167.237042,248.642732 205.693076,234.99539 C244.149109,221.348049 266.016266,190.64153 271.294545,142.875835 C275.441765,103.04464 261.303517,73.4489521 228.879802,54.0887699 C196.456087,34.7285877 137.829486,28.698367 53,35.9981078 Z" id="inner" fill="#D8D8D8"></path>
        </g>
    </g>
</svg>
