<?xml version="1.0" encoding="UTF-8"?>
<svg width="2014px" height="677px" viewBox="0 0 2014 677" version="1.1" xmlns="http://www.w3.org/2000/svg" xmlns:xlink="http://www.w3.org/1999/xlink">
    <!-- Generator: Sketch 51.3 (57544) - http://www.bohemiancoding.com/sketch -->
    <title>THE</title>
    <desc>Created with Sketch.</desc>
    <defs></defs>
    <g id="Page-1" stroke="none" stroke-width="1" fill="none" fill-rule="evenodd">
        <path d="M350,532 C350,570.66686 360.99989,590 383,590 C384.33334,590 387.166645,589.833335 391.5,589.5 C395.833355,589.166665 399.99998,588.66667 404,588 C408.66669,588 414.3333,587.66667 421,587 C427.6667,586.33333 430.33334,586 429,586 C441.66673,586 452.66662,590.499955 462,599.5 C471.33338,608.500045 476,618.66661 476,630 C476,661.33349 456.33353,677 417,677 L409,677 C406.99999,676.33333 404.66668,676 402,676 L354,669 C344.66662,667.66666 335.33338,666.66667 326,666 C316.66662,665.33333 307.00005,665 297,665 C285.66661,665 274.66672,665.33333 264,666 C253.33328,666.66667 243.33338,667.66666 234,669 L186,676 C183.33332,676 181.33334,676.33333 180,677 L171,677 C131.66647,677 112,661.33349 112,630 C112,600.66652 127.66651,586 159,586 C157.66666,586 160.499965,586.33333 167.5,587 C174.500035,587.66667 179.99998,588 184,588 C188.66669,588.66667 192.99998,589.166665 197,589.5 C201.00002,589.833335 203.66666,590 205,590 C226.33344,590 237,570.66686 237,532 L237,465 L238,380 L238,299 L237,142 C237,105.33315 219.00018,87 183,87 L154,87 C118.66649,87 101,104.99982 101,141 L101,160.5 C101,165.500025 101.33333,169.66665 102,173 L106,207 C106.66667,210.33335 107,214.33331 107,219 L107,233 C107,282.33358 89.00018,307 53,307 C18.33316,307 1,288.00019 1,250 L1,238 C1,232.66664 1.33333,227.66669 2,223 C2,220.99999 2.166665,218.500015 2.5,215.5 C2.833335,212.499985 3,209.33335 3,206 C5.00001,175.99985 6,156.66671 6,148 C6,140.66663 5.833335,133.00004 5.5,125 C5.166665,116.99996 4.66667,108.33338 4,99 L1,70 C0.33333,65.99998 0.33333,64 1,64 C1.66667,64 1.33334,61.00003 0,55 C0,18.99982 17.66649,1 53,1 C57.00002,1 64.499945,1.166665 75.5,1.5 C86.500055,1.833335 99.99992,2.66666 116,4 L124,4 C130.00003,4 138.833275,4.166665 150.5,4.5 C162.166725,4.833335 176.66658,5.33333 194,6 C212.00009,6 230.166575,6.33333 248.5,7 C266.833425,7.66667 284.99991,8 303,8 C306.33335,8 311.3333,7.833335 318,7.5 C324.6667,7.166665 332.66662,7 342,7 C350.00004,7 359.33328,6.833335 370,6.5 C380.66672,6.166665 392.6666,6 406,6 C417.33339,6 437.99985,5.00001 468,3 C479.33339,1.66666 490.66661,0.833335 502,0.5 C513.33339,0.166665 522.66663,0 530,0 C572.66688,0 594,18.33315 594,55 C594,61.6667 593.166675,73.833245 591.5,91.5 C589.833325,109.166755 588.33334,127.66657 587,147 L587,174.5 C587,182.166705 587.66666,190.99995 589,201 C590.33334,214.3334 591.33333,225.33329 592,234 C592.66667,242.66671 593,248.66665 593,252 C593,286.66684 575.00018,304 539,304 C504.33316,304 487,283.66687 487,243 C487,231.66661 487.99999,214.33345 490,191 C490.66667,179.66661 491.166665,169.66671 491.5,161 C491.833335,152.33329 492,145.33336 492,140 C492,104.66649 472.33353,87 433,87 L406,87 C388.66658,87 376.00004,91.33329 368,100 C359.99996,108.66671 355.33334,121.66658 354,139 L351,206 L350,532 Z M868,276 L1142,276 L1142,148 C1142,108.66647 1131.33344,89 1110,89 C1109.33333,89 1107.50002,89.166665 1104.5,89.5 C1101.49998,89.833335 1098.33335,90.33333 1095,91 L1096,91 C1091.33331,92.33334 1086.1667,93.33333 1080.5,94 C1074.83331,94.66667 1069.33336,95 1064,95 C1032.66651,95 1017,80.00015 1017,50 C1017,17.99984 1035.99981,2 1074,2 C1084.66672,2 1101.99988,3.99998 1126,8 C1138.00006,10.00001 1149.16662,11.33333 1159.5,12 C1169.83338,12.66667 1179.66662,13 1189,13 C1203.00007,13 1218.16658,12.66667 1234.5,12 C1250.83342,11.33333 1266.66659,9.66668 1282,7 C1290.66671,5.66666 1298.49996,4.66667 1305.5,4 C1312.50004,3.33333 1317.66665,3 1321,3 C1360.33353,3 1380,18.66651 1380,50 C1380,79.33348 1364.33349,94 1333,94 C1329.66665,94 1325.83335,93.833335 1321.5,93.5 C1317.16665,93.166665 1313.00002,92.66667 1309,92 C1304.99998,91.33333 1300.00003,90.833335 1294,90.5 C1287.99997,90.166665 1285,89.66667 1285,89 C1264.9999,89.66667 1255,109.33314 1255,148 L1255,531 C1255,569.66686 1265.33323,589 1286,589 C1287.33334,589 1290.16665,588.833335 1294.5,588.5 C1298.83335,588.166665 1303.33331,588 1308,588 L1333,585 C1364.33349,585 1380,599.66652 1380,629 C1380,661.00016 1360.33353,677 1321,677 C1312.33329,677 1298.66676,675.00002 1280,671 C1259.33323,666.33331 1236.33346,664 1211,664 C1175.66649,664 1146.66678,665.99998 1124,670 C1110.6666,672.66668 1099.66671,674.499995 1091,675.5 C1082.33329,676.500005 1077.00001,677 1075,677 C1036.33314,677 1017,661.00016 1017,629 C1017,598.99985 1032.66651,584 1064,584 C1062.66666,584 1065.3333,584.33333 1072,585 C1078.6667,585.66667 1084.33331,586.33333 1089,587 C1093.00002,587.66667 1096.99998,588 1101,588 L1110,588 C1128.00009,588 1138.33332,574.33347 1141,547 C1141.66667,543.66665 1142,515.66693 1142,463 L1142,368 L868,368 L868,464 C868,516.66693 868.33333,544.66665 869,548 C873.00002,575.33347 883.66658,589 901,589 C901.66667,589 904.166645,588.833335 908.5,588.5 C912.833355,588.166665 917.33331,588 922,588 L948,585 C978.66682,585 994,599.66652 994,629 C994,661.00016 974.33353,677 935,677 C927.66663,677 913.00011,675.00002 891,671 C875.66659,668.33332 861.3334,666.33334 848,665 C834.6666,663.66666 823.00005,663 813,663 C799.6666,663 786.166735,663.66666 772.5,665 C758.833265,666.33334 744.33341,668.33332 729,671 L706,675 L700,676.5 C698.66666,676.833335 695.66669,677 691,677 C650.9998,677 631,661.00016 631,629 C631,617.66661 635.66662,607.33338 645,598 C654.33338,588.66662 665.33327,584 678,584 C682.00002,584 686.166645,584.166665 690.5,584.5 C694.833355,584.833335 698.99998,585.33333 703,586 C711.66671,588.00001 718.66664,589 724,589 C746.00011,589 757,569.66686 757,531 L757,146 C757,106.66647 746.00011,87 724,87 C721.99999,87 720.00001,87.166665 718,87.5 C715.99999,87.833335 713.33335,88.33333 710,89 C704.66664,90.33334 699.00003,91.33333 693,92 C686.99997,92.66667 682.00002,93 678,93 C665.33327,93 654.33338,88.33338 645,79 C635.66662,69.66662 631,59.33339 631,48 C631,16.66651 650.9998,1 691,1 C694.33335,1 698.99997,1.33333 705,2 C711.00003,2.66667 717.66663,3.66666 725,5 C726.33334,5 727.166665,5.166665 727.5,5.5 C727.833335,5.833335 728.66666,6 730,6 C752.66678,10.66669 781.33316,13 816,13 C828.66673,13 847.99987,11.00002 874,7 C900.6668,2.99998 920.99993,1 935,1 C974.33353,1 994,16.99984 994,49 C994,62.3334 989.500045,73.166625 980.5,81.5 C971.499955,89.833375 960.66673,94 948,94 C942.66664,94 937.166695,93.66667 931.5,93 C925.833305,92.33333 920.33336,91.33334 915,90 C912.99999,90 911.166675,89.833335 909.5,89.5 C907.833325,89.166665 906.33334,89 905,89 C902.99999,89 901.66667,88.66667 901,88 C889.66661,88 881.66669,92.99995 877,103 C872.33331,113.00005 869.66667,127.66657 869,147 L868,276 Z M1754.96695,388.372907 C1754.98895,388.771429 1754.99996,389.312697 1755,389.996713 C1754.99996,389.44736 1754.98894,388.906091 1754.96695,388.372907 Z M1754.96695,388.372907 C1754.24191,370.790884 1741.58638,362 1717,362 L1673,362 C1661.66661,362 1654.83335,364.33331 1652.5,369 C1650.16665,373.66669 1649,383.66659 1649,399 L1649,476.5 C1649,482.833365 1649.33333,490.33329 1650,499 C1650.66667,509.66672 1651,518.499965 1651,525.5 L1651,541 C1651.66667,564.33345 1654.66664,577.33332 1660,580 C1663.33335,582.66668 1676.66655,584 1700,584 L1831,584 C1862.33349,584 1883.83327,579.166715 1895.5,569.5 C1907.16673,559.833285 1913,542.33346 1913,517 L1913,505 C1913,500.33331 1912.66667,495.00003 1912,489 C1912,486.99999 1911.83334,484.833345 1911.5,482.5 C1911.16666,480.166655 1911,478.00001 1911,476 C1910.33333,467.99996 1910,459.833375 1910,451.5 L1910,432 C1910,393.99981 1926.99983,375 1961,375 C1996.33351,375 2014,394.33314 2014,433 L2014,448 C2014,454.00003 2013.66667,460.66663 2013,468 C2013,470.00001 2012.83334,472.833315 2012.5,476.5 C2012.16666,480.166685 2012,483.33332 2012,486 C2012,489.33335 2011.83333,492.66665 2011.5,496 C2011.16667,499.33335 2011,502.66665 2011,506 C2010.33333,513.33337 2010,519.66664 2010,525 L2010,555 C2010,561.6667 2010.33333,569.66662 2011,579 C2011,581.66668 2011.16667,583.833325 2011.5,585.5 C2011.83333,587.166675 2012,588.66666 2012,590 C2012.66667,595.33336 2013,600.499975 2013,605.5 L2013,618 C2013,657.33353 1993.0002,677 1953,677 L1942,677 C1937.33331,677 1933.33335,676.66667 1930,676 C1927.99999,676 1925.83335,675.833335 1923.5,675.5 C1921.16665,675.166665 1919.00001,675 1917,675 C1904.99994,672.99999 1894.00005,671.833335 1884,671.5 C1873.99995,671.166665 1863.83338,671 1853.5,671 C1843.16662,671 1832.00006,671.166665 1820,671.5 C1807.99994,671.833335 1794.33341,672 1779,672 C1756.33322,671.33333 1735.16676,670.833335 1715.5,670.5 C1695.83324,670.166665 1677.66675,670 1661,670 C1600.9997,670 1542.00029,671.99998 1484,676 C1481.33332,676 1479.33334,676.33333 1478,677 L1470,677 C1431.99981,677 1413,661.00016 1413,629 C1413,599.66652 1428.33318,585 1459,585 C1459.66667,585 1460.66666,585.166665 1462,585.5 C1463.33334,585.833335 1465.33332,586 1468,586 C1470.00001,586 1472.66665,586.166665 1476,586.5 C1479.33335,586.833335 1482.66665,587 1486,587 C1489.33335,587.66667 1492.66665,588.166665 1496,588.5 C1499.33335,588.833335 1502.33332,589 1505,589 C1527.00011,589 1538,569.66686 1538,531 L1538,146 C1538,107.33314 1527.00011,88 1505,88 C1500.33331,88 1494.6667,88.66666 1488,90 C1477.99995,92.00001 1468.33338,93 1459,93 C1446.33327,93 1435.50005,88.833375 1426.5,80.5 C1417.49995,72.166625 1413,61.3334 1413,48 C1413,16.66651 1431.99981,1 1470,1 L1476,1 C1479.33335,1 1482.66665,1.33333 1486,2 L1563,8 C1580.33342,9.33334 1593.16663,10.499995 1601.5,11.5 C1609.83337,12.500005 1618.66662,12.66667 1628,12 L1860,5 C1863.33335,5 1879.66652,4.00001 1909,2 L1908,2 C1913.33336,1.33333 1918.33331,1 1923,1 L1937,1 C1981.66689,1 2004,20.33314 2004,59 C2004,61.00001 2003.66667,66.499955 2003,75.5 C2002.33333,84.500045 2001.33334,95.6666 2000,109 C1998.66666,118.33338 1997.83333,127.99995 1997.5,138 C1997.16667,148.00005 1997,156.66663 1997,164 C1997,174.66672 1997.16667,183.833295 1997.5,191.5 C1997.83333,199.166705 1998.33333,204.99998 1999,209 C2000.33334,218.33338 2001.33333,226.66663 2002,234 C2002.66667,241.33337 2003,247.66664 2003,253 C2003,285.66683 1986.00017,302 1952,302 C1917.99983,302 1901,280.66688 1901,238 L1901,188 C1901,139.99976 1893.00008,112.6667 1877,106 L1878,106 C1861.33325,99.3333 1820.33366,96 1755,96 C1713.66646,96 1688.00005,96.99999 1678,99 C1658.66657,105.6667 1649,120.33322 1649,143 L1649,209 C1648.33333,213.66669 1648,217.499985 1648,220.5 L1648,239 C1648,257.00009 1649.33332,267.33332 1652,270 C1658.6667,271.33334 1665.3333,272 1672,272 L1712,272 C1740.66681,272 1755.33333,263.33342 1756,246 C1755.33333,244.66666 1754.83333,240.6667 1754.5,234 C1754.16667,227.3333 1753.66667,221.66669 1753,217 L1753,218 C1750.99999,205.99994 1750,193.66673 1750,181 C1750,146.99983 1766.99983,130 1801,130 C1835.00017,130 1852,147.99982 1852,184 C1852,187.33335 1851.5,194.33328 1850.5,205 C1849.5,215.66672 1847.66668,229.33325 1845,246 C1840.99998,275.33348 1839,300.66656 1839,322 C1839,328.00003 1839.33333,336.833275 1840,348.5 C1840.66667,360.166725 1841.66666,373.66659 1843,389 L1848,421 C1850.00001,435.00007 1851,446.99995 1851,457 C1851,489.00016 1834.00017,505 1800,505 C1766.6665,505 1750,487.00018 1750,451 C1750,447.66665 1750.16667,443.00003 1750.5,437 C1750.83334,430.99997 1751.33333,425.33336 1752,420 C1752,417.33332 1752.16666,413.66669 1752.5,409 C1752.83334,404.33331 1753.16666,400.166685 1753.5,396.5 C1753.83334,392.833315 1754.16667,390.166675 1754.5,388.5 C1754.74764,387.261805 1754.90329,387.219439 1754.96695,388.372907 Z" id="THE" fill="#000000"></path>
    </g>
</svg>